<svg xmlns="http://www.w3.org/2000/svg" enable-background="new 0 0 128 128" viewBox="0 0 128 128" id="Bell">
  <path fill="#000000" d="M114.3,111.1c-3.6-6.8-7.3-13.3-8.8-20.9c-1.8-9-0.9-17.5-0.4-26.5c0.5-8.7,0-17.6-4.2-25.5
	c-5.2-9.8-14.2-17.5-25.3-20.7l-4.9-1.4V8.8c0-3.6-2.7-6.6-6.3-6.8c-0.1,0-0.3,0-0.4,0c-0.1,0-0.3,0-0.4,0c-3.6,0.2-6.3,3.3-6.3,6.8
	v7.4l-4.9,1.4c-11.1,3.2-20.1,10.9-25.3,20.7c-4.2,7.9-4.7,16.8-4.2,25.5c0.5,9,1.5,17.6-0.4,26.5c-1.6,7.6-5.2,14.1-8.8,20.9
	c-0.4,0.7-0.3,1.4,0.1,2.1c0.4,0.7,1.1,1,1.9,1h37l0.4,1.5c0.3,5.8,5.2,10.4,11,10.4c5.8,0,10.7-4.6,11-10.4l0.4-1.5h37
	c0.8,0,1.5-0.4,1.9-1C114.6,112.5,114.6,111.8,114.3,111.1z M64,32.9c-13.7,0-24.8,11.1-24.8,24.8c0,2-1.6,3.6-3.6,3.6
	c-2,0-3.6-1.6-3.6-3.6c0-17.6,14.3-31.9,31.9-31.9c2,0,3.6,1.6,3.6,3.6C67.6,31.3,66,32.9,64,32.9z" class="color373737 svgShape"></path>
</svg>
