<svg xmlns="http://www.w3.org/2000/svg" viewBox="0 0 48 48" id="Chat">
  <path fill-rule="evenodd" d="M24 0A24 24 0 0 0 0 24a24 24 0 0 0 24 24 24 24 0 0 0 24-24A24 24 0 0 0 24 0zM9.4 14a.5.5 0 0 1 .1.006h24a.5.5 0 0 1 .5.5v3h5a.5.5 0 0 1 .5.5v15a.5.5 0 0 1-.5.5h-4.5v4.5a.5.5 0 0 1-.875.312l-4.438-4.812H16.095l-1.219 1.312a.5.5 0 0 1-.875-.312v-4.5H9.5a.5.5 0 0 1-.5-.5v-15a.5.5 0 0 1 .344-.5A.5.5 0 0 1 9.4 14zm.6 1.006v14h4.5a.5.5 0 0 1 .5.5v3.719l1.531-1.657 2.125-2.406a.5.5 0 0 1 .282-.125.5.5 0 0 1 .03 0 .5.5 0 0 1 .032-.031h.125L33 28.912V15.006H10zm24.156 3.5L34 29.414a.5.5 0 0 1 0 .06v.032a.5.5 0 0 1-.5.5H19.312L18 31.412l-.969 1.094h12.344a.5.5 0 0 1 .375.156l3.75 4.063v-3.72a.5.5 0 0 1 .5-.5h4.5v-14h-4.344z" fill="#1c1c1c" class="color000000 svgShape"></path>
</svg>
