<svg xmlns="http://www.w3.org/2000/svg" xmlns:xlink="http://www.w3.org/1999/xlink" data-name="Layer 1" viewBox="0 0 512 512"><defs><linearGradient id="a" x1="255.5" x2="255.5" y1="10" y2="505.782" gradientUnits="userSpaceOnUse"><stop offset="0" stop-color="#00efd1"/><stop offset="1" stop-color="#00acea"/></linearGradient><linearGradient id="b" x1="256" x2="256" y1="10" y2="505.782" xlink:href="#a"/></defs><g data-name="&lt;Group&gt;"><path fill="url(#a)" d="M473.368,202.015l-211.1-163.4a9.906,9.906,0,0,0-12.164-.007L38.11,202.007A10.213,10.213,0,0,0,34,209.924v86.314a10.239,10.239,0,0,0,5.839,8.975A9.894,9.894,0,0,0,50.3,304.155L82,279.649V465.471C82,470.993,86.848,475,92.37,475h323.5c5.523,0,10.129-4.007,10.129-9.529V276.679l35.446,27.469a9.9,9.9,0,0,0,6.087,2.09,8.908,8.908,0,0,0,4.138-1.022A9.762,9.762,0,0,0,477,296.238V209.924A9.772,9.772,0,0,0,473.368,202.015ZM406,455H102V264.219l154.146-118.74L406,261.208Zm51-179.14L262.143,124.933a10.185,10.185,0,0,0-12.352-.007L54,275.893V214.839L255.767,59.166,457,214.831Z" data-name="&lt;Compound Path&gt;"/><path fill="url(#b)" d="M246.664,262.143,198.891,386.561a10,10,0,0,0,14.859,11.92L256,370.49l42.25,27.991a10,10,0,0,0,14.859-11.92L265.336,262.143a10,10,0,0,0-18.672,0Zm36.565,102.4-21.706-14.381a10,10,0,0,0-11.046,0l-21.706,14.381L256,293.625Z" data-name="&lt;Compound Path&gt;"/></g></svg>