<svg xmlns="http://www.w3.org/2000/svg" width="96" height="96" fill="none" viewBox="0 0 96 96" id="search">
  <path fill="url(#paint0_linear_714_177)" fill-rule="evenodd" d="M18.6946 54.8011C8.72453 44.831 8.72453 28.6664 18.6946 18.6963C28.6646 8.72623 44.8293 8.72624 54.7994 18.6963C64.7694 28.6664 64.7694 44.831 54.7994 54.8011C44.8293 64.7711 28.6646 64.7711 18.6946 54.8011ZM15.1591 15.1608C3.23637 27.0834 3.23637 46.4139 15.1591 58.3366C26.1109 69.2885 43.3133 70.1803 55.2831 61.0119L82.0396 87.7684C83.0159 88.7447 84.5988 88.7447 85.5751 87.7684C86.5514 86.7921 86.5514 85.2092 85.5751 84.2329L58.9966 57.6544C70.2534 45.6876 70.0328 26.8586 58.3349 15.1608C46.4122 3.23808 27.0817 3.23808 15.1591 15.1608Z" clip-rule="evenodd"></path>
  <defs>
    <linearGradient id="paint0_linear_714_177" x1="46.262" x2="46.262" y1="6.219" y2="88.501" gradientUnits="userSpaceOnUse">
      <stop stop-color="#041034"></stop>
      <stop offset="1" stop-color="#516EC4"></stop>
    </linearGradient>
  </defs>
</svg>
