<svg xmlns="http://www.w3.org/2000/svg" viewBox="0 0 48 48" id="user-networking">
  <g>
    <circle cx="24" cy="24" r="6"></circle>
    <path d="M19.1 17.68l-2.35-2.35a13.6 13.6 0 0 1-1.42 1.42l2.35 2.35A8 8 0 0 1 19.1 17.68zM17.68 28.9l-2.35 2.35a13.6 13.6 0 0 1 1.42 1.42l2.35-2.35A8 8 0 0 1 17.68 28.9zM32.67 31.25L30.32 28.9a8 8 0 0 1-1.42 1.42l2.35 2.35A13.6 13.6 0 0 1 32.67 31.25zM30.32 19.1l2.35-2.35a13.6 13.6 0 0 1-1.42-1.42L28.9 17.68A8 8 0 0 1 30.32 19.1zM13.72 23a2 2 0 1 0 0 2h2.34a8.36 8.36 0 0 1 0-2zM25 34.28V31.94a8.36 8.36 0 0 1-2 0v2.34a2 2 0 1 0 2 0zM34.28 25a2 2 0 1 0 0-2H31.94a8.36 8.36 0 0 1 0 2zM23 13.72v2.34a8.36 8.36 0 0 1 2 0V13.72a2 2 0 1 0-2 0z"></path>
    <circle cx="9" cy="8" r="2"></circle>
    <path d="M4.64,15.55l-.07.1a8,8,0,0,0,8.86,0C12.45,14,10.84,12,9,12S5.57,13.91,4.64,15.55Z"></path>
    <path d="M6.23,10.87a4,4,0,1,1,5.54,0A11,11,0,0,1,15,14.33,8,8,0,1,0,3,14.33,10.66,10.66,0,0,1,6.23,10.87Z"></path>
    <circle cx="39" cy="8" r="2"></circle>
    <path d="M43.43,15.66C42.45,14,40.84,12,39,12s-3.43,1.91-4.36,3.55l-.07.1A8,8,0,0,0,43.43,15.66Z"></path>
    <path d="M36.23,10.87a4,4,0,1,1,5.54,0A11,11,0,0,1,45,14.33a8,8,0,1,0-11.93,0A10.66,10.66,0,0,1,36.23,10.87Z"></path>
    <circle cx="9" cy="38" r="2"></circle>
    <path d="M9,42c-1.72,0-3.43,1.91-4.36,3.55l-.07.1a8,8,0,0,0,8.86,0C12.45,44,10.84,42,9,42Z"></path>
    <path d="M9,31A8,8,0,0,0,3,44.33a10.66,10.66,0,0,1,3.19-3.46,4,4,0,1,1,5.54,0A11,11,0,0,1,15,44.33,8,8,0,0,0,9,31Z"></path>
    <circle cx="39" cy="38" r="2"></circle>
    <path d="M39,42c-1.72,0-3.43,1.91-4.36,3.55l-.07.1a8,8,0,0,0,8.86,0C42.45,44,40.84,42,39,42Z"></path>
    <path d="M39,31a8,8,0,0,0-6,13.33,10.66,10.66,0,0,1,3.19-3.46,4,4,0,1,1,5.54,0A11,11,0,0,1,45,44.33,8,8,0,0,0,39,31Z"></path>
  </g>
</svg>
